HIERARCHY
ROOT Hips
{
  OFFSET 48.7828 100.653 -259.187
  CHANNELS 6 Xposition Yposition Zposition Zrotation Xrotation Yrotation
  JOINT ToSpine
  {
    OFFSET -0.0105055 1.38907 -7.13956
    CHANNELS 3 Zrotation Xrotation Yrotation
    JOINT Spine
    {
      OFFSET 0.0105055 10 1
      CHANNELS 3 Zrotation Xrotation Yrotation
      JOINT Spine1
      {
        OFFSET 0 12 1.60637
        CHANNELS 3 Zrotation Xrotation Yrotation
        JOINT Neck
        {
          OFFSET 0 27 2.26658
          CHANNELS 3 Zrotation Xrotation Yrotation
          JOINT Head
          {
            OFFSET 0 9 2.12705
            CHANNELS 3 Zrotation Xrotation Yrotation
            End Site
            {
              OFFSET 0 11 2
            }
          }
        }
        JOINT LeftShoulder
        {
          OFFSET 8 19.6109 2.86452
          CHANNELS 3 Zrotation Xrotation Yrotation
          JOINT LeftArm
          {
            OFFSET 12 1 0.681055
            CHANNELS 3 Zrotation Xrotation Yrotation
            JOINT LeftForeArm
            {
              OFFSET 19 0 -1.52608
              CHANNELS 3 Zrotation Xrotation Yrotation
              JOINT LeftHand
              {
                OFFSET 23 0 0
                CHANNELS 3 Zrotation Xrotation Yrotation
                End Site
                {
                  OFFSET 10 0 0
                }
              }
            }
          }
        }
        JOINT RightShoulder
        {
          OFFSET -8 19.6109 2.86452
          CHANNELS 3 Zrotation Xrotation Yrotation
          JOINT RightArm
          {
            OFFSET -12 1 0.681055
            CHANNELS 3 Zrotation Xrotation Yrotation
            JOINT RightForeArm
            {
              OFFSET -19 0 -1.52608
              CHANNELS 3 Zrotation Xrotation Yrotation
              JOINT RightHand
              {
                OFFSET -23 0 0
                CHANNELS 3 Zrotation Xrotation Yrotation
                End Site
                {
                  OFFSET -10 0 0
                }
              }
            }
          }
        }
      }
    }
  }
  JOINT LeftUpLeg
  {
    OFFSET 9 -7.17245 0
    CHANNELS 3 Zrotation Xrotation Yrotation
    JOINT LeftLeg
    {
      OFFSET 0 -44.1113 0
      CHANNELS 3 Zrotation Xrotation Yrotation
      JOINT LeftFoot
      {
        OFFSET 0 -36.1829 0
        CHANNELS 3 Zrotation Xrotation Yrotation
        JOINT LeftToeBase
        {
          OFFSET 0 -4.84184 13
          CHANNELS 3 Zrotation Xrotation Yrotation
          End Site
          {
            OFFSET 0 1 6
          }
        }
      }
    }
  }
  JOINT RightUpLeg
  {
    OFFSET -9 -7.17245 0
    CHANNELS 3 Zrotation Xrotation Yrotation
    JOINT RightLeg
    {
      OFFSET 0 -44.0551 0
      CHANNELS 3 Zrotation Xrotation Yrotation
      JOINT RightFoot
      {
        OFFSET 0 -36.1469 0
        CHANNELS 3 Zrotation Xrotation Yrotation
        JOINT RightToeBase
        {
          OFFSET 0 -4.92256 13
          CHANNELS 3 Zrotation Xrotation Yrotation
          End Site
          {
            OFFSET 0 1 6
          }
        }
      }
    }
  }
}
MOTION
Frames:	15
Frame Time:	0.0333333
20.9481 96.5521 -15.898 -3.34768 -5.03762 4.63269 0 0 0 17.8001 5.91597 4.35466 -14.5046 3.99063 7.92599 -0.326244 12.8414 -2.13452 1.22939 -4.02772 -2.54461 -33.9145 3.20232 -4.49773 -50.9325 17.4063 12.7709 -1.41675 -6.63761 -13.573 -12.0064 0.158552 -1.50731 21.9165 5.81995 16.8812 36.698 11.375 15.0194 -1.45372 4.69307 18.3698 4.13119 0.140592 3.93498 1.90222 -17.8777 5.37521 -2.88218 5.80687 11.4556 6.21111 1.11148 -0.0626762 1.1097 -2.86587 -4.28668 4.70812 10.0005 -8.12155 0.0103595 13.5411 -2.11009 -14.1657 -12.1666 -1.51988 4.38813 -16.7242 -5.06052 
21.6244 95.8186 -12.9761 -3.87132 -5.25636 4.83905 0 0 0 19.2001 5.30809 4.55543 -15.4407 4.23581 8.25746 -0.815647 13.131 -1.52267 0.780022 -3.78965 -2.03898 -34.5269 3.04614 -3.9923 -50.4519 16.179 13.1886 -1.42997 -6.886 -13.7083 -12.0978 0.211393 -1.99539 21.9319 5.77092 16.7024 36.3177 12.3057 16.622 -0.547788 2.61193 17.6517 3.2202 0.136935 4.82539 0.528974 -17.921 4.43131 -1.54244 3.63305 19.3923 4.73481 1.3111 -0.0509017 1.28351 -3.3775 -5.0478 4.80616 12.2213 -8.8373 0.563292 13.8728 -1.45965 -15.3663 -13.5541 -1.83868 4.6436 -18.166 -6.83715 
22.2918 95.3576 -10.054 -3.83459 -5.56867 5.23646 0 0 0 19.2201 4.69984 4.79037 -15.7023 4.8123 8.58489 -0.966561 13.3678 -0.940844 0.156585 -3.4085 -1.38955 -35.0691 3.02166 -3.83175 -50.0835 13.6749 13.5626 -1.14995 -6.29402 -13.8372 -12.4531 0.196589 -1.80077 22.1198 5.78591 16.6305 37.2255 12.2127 16.9044 0.369091 -0.277183 17.9548 2.49474 0.100971 4.69173 -0.643948 -16.9699 4.12597 -1.45214 3.19774 22.6612 5.67931 2.35401 -0.136704 1.09376 -4.06862 -4.05216 4.50292 15.0183 -9.45127 1.03694 12.8954 -1.8417 -18.0907 -13.2483 -2.11174 5.2902 -20.9026 -6.14464 
22.9506 95.4489 -7.10881 -3.18349 -5.5896 5.81541 0 0 0 18.1534 3.70644 5.04896 -15.9918 5.57029 8.92643 -0.422475 13.4454 -0.356149 -0.34763 -2.91513 -0.468825 -33.8215 2.88683 -3.72873 -50.9832 11.7529 13.5974 -1.02086 -6.0812 -13.9984 -12.2212 0.181473 -1.70166 22.9636 5.96493 16.6866 38.5292 11.5327 16.6888 0.803797 -1.40592 17.4935 1.77067 0.0862556 5.52993 -1.65477 -16.1362 4.48064 -2.66451 4.66139 21.4123 10.6525 5.44559 -0.501272 0.956595 -4.93452 -3.17133 3.58932 17.4773 -10.0857 1.37132 11.6896 -1.31076 -18.0817 -10.9112 -1.74838 6.1293 -24.6333 -6.16867 
23.6924 95.8201 -3.99883 -2.55618 -5.3765 6.4766 0 0 0 17.0152 2.07749 5.34923 -16.1526 6.6575 9.19781 -0.0983273 13.2118 0.360966 -0.520318 -2.08272 0.434498 -33.6035 2.75526 -3.43597 -50.7915 10.8957 13.1645 -1.3404 -7.33976 -13.676 -11.4248 0.215853 -2.15463 23.9398 6.20442 16.8518 40.4029 10.6085 16.217 0.625971 -0.460179 16.4228 1.75898 0.0799296 5.19442 -2.54262 -15.7209 4.75529 -3.82728 6.54025 19.3438 14.0078 5.67456 -0.690092 0.744644 -1.53785 -2.88995 2.394 18.8452 -10.5575 1.32709 12.323 -0.0981799 -13.6355 -8.99282 -1.08183 6.70139 -26.675 -5.42017 
24.6628 96.1544 -0.857134 -2.02835 -5.50856 7.25708 0 0 0 16.7057 0.997947 5.46388 -17.0983 7.47327 9.47171 0.551122 12.8569 0.93666 -1.13571 -1.35628 1.41649 -32.4892 2.58271 -3.1932 -50.7342 9.23626 11.9296 -1.12678 -6.68279 -13.0044 -11.4482 0.199175 -1.98444 24.8955 6.42265 16.9476 42.4544 10.4676 15.428 0.885121 -0.237894 14.7947 2.84518 0.126441 5.11396 -3.56635 -15.3964 4.60234 -4.43766 10.5092 17.3571 16.9997 3.41674 -0.512216 0.94954 0.985433 -4.07629 0.643564 18.9289 -11.7337 1.5653 16.1907 2.0626 -10.2629 -6.26963 -0.55246 7.51572 -29.5278 -4.46688 
25.7423 96.415 2.04179 -1.45097 -5.79009 8.07449 0 0 0 16.1989 0.640732 5.52334 -17.5246 7.66129 9.52102 0.469448 12.8588 1.86925 -1.41849 -1.16176 2.39172 -32.1143 2.5489 -3.1696 -50.097 8.88011 10.4927 -1.18235 -7.0318 -12.542 -11.0645 0.196578 -2.04191 25.4575 6.65388 17.3175 44.6058 10.6731 13.9964 1.13206 0.153656 13.3642 3.59282 0.153745 4.90612 -4.64504 -14.8355 4.39122 -4.50839 14.505 16.5999 17.0661 -0.397991 0.0534278 0.586105 2.73822 -2.92846 -1.74934 16.6282 -14.3848 1.0631 24.4772 4.94642 -11.1689 -1.74716 -0.171123 9.44399 -33.9924 -0.765546 
26.8701 96.6235 4.77038 -0.236514 -6.60308 8.81699 0 0 0 15.0304 1.56587 5.38988 -17.7769 7.44379 9.55062 0.198462 12.747 2.89479 -1.68916 -1.54319 3.37703 -31.4639 2.51629 -3.19813 -49.4598 8.48413 8.37941 -1.2138 -7.42069 -12.1586 -10.4268 0.266473 -2.91394 25.8621 6.77206 17.4284 46.3503 11.1897 12.7991 1.07661 1.49101 12.6005 3.57497 0.174246 5.56861 -6.18099 -12.2675 4.18979 -4.89762 15.8376 16.5505 16.3787 -3.69722 0.535402 0.656272 3.68392 -3.32241 -5.29869 13.2609 -15.6968 -0.146165 35.7773 9.50663 -11.6058 1.80315 0.178149 9.31264 -33.2292 -0.163672 
28.0122 96.7495 7.40186 0.860274 -7.23853 9.8297 0 0 0 13.722 2.02723 5.34007 -17.3391 7.70389 9.5187 -0.632663 12.7032 3.92452 -1.64323 -1.64478 4.07482 -31.722 2.60969 -3.3993 -47.6626 8.67444 5.91485 -1.00535 -6.75646 -12.3243 -10.7342 0.302221 -3.21743 25.7203 6.70326 17.3065 48.142 11.6583 11.6823 1.19232 2.11982 11.9019 4.64317 0.232738 5.7381 -7.79412 -9.43564 3.6997 -5.00699 15.9117 16.1688 16.7352 -5.22233 0.766992 0.505953 2.62907 -2.58875 -8.2948 8.9338 -12.9166 0.0745336 47.0898 12.1299 -12.7173 5.42546 0.627032 6.73798 -26.019 -3.62637 
29.0288 96.6969 9.5797 1.75285 -7.50995 11.1265 0 0 0 12.3979 2.76138 5.20468 -16.7736 7.38812 9.19974 -1.80633 12.9788 5.07956 -1.30836 -1.77445 4.70185 -32.0586 2.69575 -3.5633 -45.4388 8.63947 3.23543 -0.388975 -4.84681 -13.0944 -10.5032 0.390813 -4.25098 25.5904 6.64004 17.1931 49.7415 11.7318 10.2139 1.06366 2.89356 11.8474 4.64161 0.250489 6.18845 -9.18639 -7.56663 3.3532 -5.04239 16.5639 15.6766 16.722 -7.06034 1.04075 0.54883 2.48051 -2.73381 -10.2305 3.96477 -9.85456 -0.102991 56.2136 15.4812 -15.8083 8.18033 1.12926 5.41136 -21.5401 -6.59712 
29.9304 96.5446 11.5838 2.31628 -7.6939 13.436 0 0 0 11.4862 3.29634 4.6528 -16.2892 7.27183 8.41358 -2.88323 13.4132 6.26247 -1.54404 -2.18522 5.50841 -32.5745 2.786 -3.70321 -42.6469 8.67875 0.405511 0.161706 -3.08146 -14.081 -10.0704 0.395764 -4.48767 25.4519 6.47328 16.7657 51.0487 11.4095 8.47625 0.794589 3.29458 12.3799 4.42337 0.269959 6.98703 -10.0375 -6.18206 3.39311 -5.20195 18.0186 13.9659 17.8625 -9.00075 1.41756 0.502981 1.90835 -2.45616 -10.6032 -0.442742 -6.43564 -0.0447696 62.5502 13.5754 -15.9332 3.08048 0.427803 5.01552 -19.5541 -5.51967 
30.8236 96.4571 13.4149 2.45242 -7.8044 16.5305 0 0 0 10.6665 3.71941 3.83918 -15.1717 7.03704 7.22878 -3.23596 14.0672 7.24529 -2.79686 -2.6962 6.61224 -33.3317 2.78331 -3.55561 -39.1269 9.68421 -2.79475 0.129256 -3.29171 -15.2769 -9.83857 0.377787 -4.3872 25.2701 6.32444 16.4179 52.0539 10.3559 6.2808 0.514095 3.06419 13.0557 4.54351 0.237187 5.95584 -10.4153 -4.84871 3.2642 -5.07057 19.2604 11.2615 19.3368 -10.4245 1.78115 0.489755 1.56859 -2.35325 -9.96686 -4.34445 -3.6398 0.0118681 65.6941 8.74316 -17.4321 -1.29266 -0.197458 4.59027 -17.7166 -5.73593 
31.6262 96.5248 15.1876 1.99814 -7.54381 20.2089 0 0 0 10.145 3.55331 3.04749 -13.8675 6.75078 6.05339 -3.13903 14.566 7.79102 -3.57924 -2.46297 7.36596 -33.7347 2.91835 -3.82388 -36.2597 9.68934 -6.31808 0.362024 -2.5644 -15.4655 -9.90595 0.380228 -4.38851 25.4374 6.16793 15.8279 52.4872 9.6405 3.95624 0.697687 1.74207 13.4311 4.10233 0.17838 4.98377 -10.2079 -3.50143 3.04714 -4.6225 19.397 7.65892 20.5311 -11.2672 2.04421 0.374594 0.895417 -1.75591 -8.30873 -8.21851 -0.716795 0.0351955 65.8652 3.0782 -20.7394 -2.14206 -0.386485 4.71591 -18.3482 -6.11998 
32.4574 96.7786 16.9631 1.57043 -7.41087 24.6297 0 0 0 9.2914 3.47848 2.11222 -12.192 6.4676 4.65044 -3.2319 15.0002 8.3068 -3.76423 -2.67932 7.88493 -32.9119 2.99689 -4.17914 -34.9603 9.57062 -10.0528 0.569975 -1.6456 -15.2199 -10.4232 0.369933 -4.05258 24.9445 5.75951 14.8448 53.4364 8.14598 1.98459 0.610155 1.74804 13.1038 3.91868 0.168623 4.93014 -9.76164 -2.02276 2.83459 -3.88342 19.3779 3.91112 19.5301 -12.2333 2.1141 0.745357 1.24226 -3.30467 -6.40705 -10.9984 2.74144 0.0512842 63.0026 -2.30481 -24.0006 -2.81742 -0.588267 4.48047 -17.5193 -7.93761 
33.3742 97.0184 18.8154 1.26002 -7.44633 30.3436 0 0 0 7.85287 3.0851 0.747532 -9.84932 6.65085 2.66972 -2.3358 15.0243 8.30479 -4.71618 -2.54994 8.45922 -32.3502 3.07241 -4.48653 -33.5995 10.138 -13.9478 0.328338 -2.13683 -14.5301 -10.4277 0.346933 -3.79625 25.142 5.94183 15.3016 53.1723 6.47734 -1.22966 0.797687 0.391889 13.044 3.82001 0.180723 5.41228 -8.96167 -0.116086 2.76434 -3.14631 19.4174 -2.43573 19.878 -12.4663 2.19269 0.299753 0.6953 -1.41919 -4.73054 -12.4042 5.65837 0.0358664 57.8607 -8.14816 -24.3317 -6.04185 -1.30856 4.28079 -16.3808 -6.14109 
